HIERARCHY
ROOT Hips
{
	OFFSET 0.000000 0.000000 0.000000 
	CHANNELS 6 Xposition Yposition Zposition Zrotation Yrotation Xrotation
	JOINT LeftUpLeg
	{
		OFFSET 1.363060 -1.794630 0.839290 
		CHANNELS 3 Zrotation Yrotation Xrotation
		JOINT LeftLeg
		{
			OFFSET 2.448110 -6.726130 0.000000 
			CHANNELS 3 Zrotation Yrotation Xrotation
			JOINT LeftFoot
			{
				OFFSET 2.562200 -7.039590 0.000000 
				CHANNELS 3 Zrotation Yrotation Xrotation
				JOINT LeftToeBase
				{
					OFFSET 0.157640 -0.433110 2.322550 
					CHANNELS 3 Zrotation Yrotation Xrotation
					End Site
					{
						OFFSET 0.000000 0.000000 0.000000 
					}
				}
			}
		}
	}
	JOINT RightUpLeg
	{
		OFFSET -1.305520 -1.794630 0.839290 
		CHANNELS 3 Zrotation Yrotation Xrotation
		JOINT RightLeg
		{
			OFFSET -2.542530 -6.985550 0.000000 
			CHANNELS 3 Zrotation Yrotation Xrotation
			JOINT RightFoot
			{
				OFFSET -2.568260 -7.056230 0.000000 
				CHANNELS 3 Zrotation Yrotation Xrotation
				JOINT RightToeBase
				{
					OFFSET -0.164730 -0.452590 2.363150 
					CHANNELS 3 Zrotation Yrotation Xrotation
					End Site
					{
						OFFSET 0.000000 0.000000 0.000000 
					}
				}
			}
		}
	}
	JOINT Spine
	{
		OFFSET 0.028270 2.035590 -0.193380 
		CHANNELS 3 Zrotation Yrotation Xrotation
		JOINT Spine1
		{
			OFFSET 0.056720 2.048850 -0.042750 
			CHANNELS 3 Zrotation Yrotation Xrotation
			JOINT Neck1
			{
				OFFSET -0.054170 1.746240 0.172020 
				CHANNELS 3 Zrotation Yrotation Xrotation
				JOINT Head
				{
					OFFSET 0.104070 1.761360 -0.123970 
					CHANNELS 3 Zrotation Yrotation Xrotation
					End Site
					{
						OFFSET 0.000000 0.000000 0.000000 
					}
				}
			}
			JOINT LeftArm
			{
				OFFSET 3.362410 1.200890 -0.311210 
				CHANNELS 3 Zrotation Yrotation Xrotation
				JOINT LeftForeArm
				{
					OFFSET 4.983000 -0.000000 -0.000000 
					CHANNELS 3 Zrotation Yrotation Xrotation
					JOINT LeftHand
					{
						OFFSET 3.483560 -0.000000 -0.000000 
						CHANNELS 3 Zrotation Yrotation Xrotation
						JOINT LeftHandIndex1
						{
							OFFSET 0.715260 -0.000000 -0.000000 
							CHANNELS 3 Zrotation Yrotation Xrotation
							End Site
							{
								OFFSET 0.000000 0.000000 0.000000 
							}
						}
					}
				}
			}
			JOINT RightArm
			{
				OFFSET -3.136600 1.374050 -0.404650 
				CHANNELS 3 Zrotation Yrotation Xrotation
				JOINT RightForeArm
				{
					OFFSET -5.241900 -0.000000 -0.000000 
					CHANNELS 3 Zrotation Yrotation Xrotation
					JOINT RightHand
					{
						OFFSET -3.444170 -0.000000 -0.000000 
						CHANNELS 3 Zrotation Yrotation Xrotation
						JOINT RightHandIndex1
						{
							OFFSET -0.622530 -0.000000 -0.000000 
							CHANNELS 3 Zrotation Yrotation Xrotation
							End Site
							{
								OFFSET 0.000000 0.000000 0.000000 
							}
						}
					}
				}
			}
		}
	}
}
MOTION
Frames: 13
Frame Time: 0.041667
-0.337994 17.633580 -0.290097 1.033572 -9.307062 5.105421 -23.932796 -4.644545 -2.174107 -0.255141 2.415583 11.483257 -2.031940 15.206434 -15.393857 0.510300 -4.578800 -12.710900 28.607867 10.755424 -6.046216 -1.840539 -5.163014 19.132589 0.801426 -11.482121 -13.975481 -0.316200 3.614500 -9.994400 0.697357 1.593333 -0.069945 -0.360455 0.919796 2.206552 1.998441 -4.305567 9.750504 0.922300 -2.222500 4.633000 -77.903743 30.205480 61.218562 62.937703 -55.960463 -35.355521 -1.864658 1.208360 -78.509452 -7.125000 0.000000 0.000000 77.327774 -24.978409 52.461627 -64.123092 56.502743 -32.144644 1.386916 -1.321958 -89.232381 7.125000 0.000000 0.000000 
-0.346429 17.632804 -0.291551 1.067288 -9.351263 5.080782 -23.943882 -4.598246 -2.209551 -0.245271 2.449101 11.576499 -2.027317 15.197453 -15.418009 0.527500 -4.654400 -12.925400 28.606364 10.768523 -6.017054 -1.839094 -5.156840 19.117694 0.803722 -11.481797 -13.946493 -0.308500 3.570600 -9.871700 0.694322 1.601540 -0.089160 -0.367005 0.925160 2.124308 2.024175 -4.198110 9.772928 0.931100 -2.167300 4.593600 -77.927439 30.128979 61.181094 62.654012 -55.894551 -35.113139 -1.868544 1.206517 -78.351055 -7.125000 0.000000 0.000000 77.473247 -25.033934 52.256993 -64.026174 56.486156 -32.071759 1.387908 -1.325852 -89.179063 7.125000 0.000000 0.000000 
-0.354574 17.630671 -0.292424 1.064905 -9.455325 5.083215 -23.921014 -4.516180 -2.304000 -0.229011 2.505175 11.727385 -2.018973 15.177595 -15.453777 0.544200 -4.726400 -13.129700 28.631430 10.830318 -5.954399 -1.826127 -5.119965 19.011907 0.833598 -11.574406 -13.747231 -0.362700 3.868700 -10.707700 0.703881 1.604753 -0.085406 -0.357754 0.926496 2.132870 2.066811 -4.086656 9.811399 0.956700 -2.111300 4.577100 -78.014408 29.984582 61.042966 62.359767 -55.825003 -34.863388 -1.873959 1.204904 -78.329491 -7.125000 0.000000 0.000000 77.564790 -25.015005 52.105776 -63.882231 56.461491 -31.961645 1.390081 -1.326158 -89.168861 7.125000 0.000000 0.000000 
-0.361167 17.629120 -0.293588 1.003595 -9.547245 5.086993 -23.831154 -4.444244 -2.319886 -0.225037 2.516146 11.757586 -2.004029 15.122690 -15.487243 0.523600 -4.637500 -12.877600 28.712044 10.856091 -5.943104 -1.822848 -5.111258 18.987798 0.841026 -11.551557 -13.604614 -0.417800 4.149100 -11.496500 0.718559 1.615304 -0.078042 -0.388491 0.934399 2.133472 2.064821 -4.002169 9.843221 0.953100 -2.068800 4.555300 -78.082994 29.997809 60.932499 62.326629 -55.818572 -34.834844 -1.872374 1.212793 -78.191143 -7.125000 0.000000 0.000000 77.658668 -25.023703 51.957066 -63.768434 56.441366 -31.873717 1.384323 -1.333974 -89.137655 7.125000 0.000000 0.000000 
-0.367275 17.630671 -0.293297 1.003663 -9.633473 5.061562 -23.818648 -4.390430 -2.282156 -0.224744 2.515779 11.763640 -1.989930 15.093483 -15.573427 0.500400 -4.534900 -12.586500 28.741502 10.767574 -5.917989 -1.820437 -5.101943 18.967829 0.808502 -11.365203 -13.663912 -0.371900 3.916900 -10.842900 0.729932 1.631930 -0.054538 -0.396466 0.943986 2.169765 2.100914 -3.883677 9.905686 0.980500 -2.010800 4.566800 -78.177748 30.073828 60.817676 62.399389 -55.838424 -34.899612 -1.872348 1.215843 -78.046522 -7.125000 0.000000 0.000000 77.723502 -25.028638 51.824188 -63.698364 56.429380 -31.821729 1.376279 -1.344400 -89.074658 7.125000 0.000000 0.000000 
-0.372608 17.632998 -0.292521 1.085925 -9.708701 5.080951 -23.899008 -4.383904 -2.260263 -0.230956 2.497064 11.715062 -2.001338 15.158266 -15.607089 0.510000 -4.577500 -12.707300 28.665840 10.744949 -5.985340 -1.823960 -5.110488 18.985771 0.772491 -11.184029 -13.762539 -0.312000 3.590800 -9.928100 0.729602 1.657163 -0.041467 -0.373978 0.955028 2.225902 2.187947 -3.778381 10.010943 1.037900 -1.959300 4.615800 -78.255310 30.010246 60.771933 62.236670 -55.800795 -34.763444 -1.870133 1.212371 -77.995036 -7.125000 0.000000 0.000000 77.775101 -25.046079 51.672561 -63.695266 56.431211 -31.824404 1.377965 -1.345951 -89.035923 7.125000 0.000000 0.000000 
-0.379492 17.633192 -0.294751 1.084809 -9.765580 5.080939 -23.881568 -4.410725 -2.175884 -0.242039 2.457316 11.607414 -2.044892 15.333069 -15.565714 0.522600 -4.633200 -12.865200 28.696482 10.776891 -6.034109 -1.833182 -5.136106 19.053616 0.812629 -11.336495 -13.527364 -0.416100 4.140500 -11.472400 0.710297 1.719882 -0.014127 -0.446576 0.987936 2.276683 2.372886 -3.784305 10.397239 1.012200 -1.948600 4.321500 -78.195600 29.851462 60.804019 62.037130 -55.751323 -34.589774 -1.862379 1.213646 -77.923623 -7.125000 0.000000 0.000000 77.940365 -25.053343 51.404079 -63.787582 56.458505 -31.899447 1.384440 -1.342613 -89.068509 7.125000 0.000000 0.000000 
-0.386764 17.631447 -0.297951 1.085117 -9.820492 5.025340 -23.855337 -4.341574 -2.069237 -0.251211 2.416642 11.502886 -2.073526 15.426278 -15.490331 0.537200 -4.696000 -13.043600 28.734204 10.807202 -6.015516 -1.843872 -5.162485 19.132804 0.844252 -11.454469 -13.337431 -0.539200 4.704900 -13.068700 0.704473 1.759161 0.026791 -0.489587 1.007872 2.307929 2.403535 -3.753766 10.466975 1.019600 -1.931500 4.363800 -78.220864 29.752479 60.751380 61.909052 -55.718188 -34.477892 -1.853430 1.216674 -77.706102 -7.125000 0.000000 0.000000 78.084174 -25.018283 51.143201 -63.855861 56.476981 -31.952953 1.386425 -1.341080 -89.029128 7.125000 0.000000 0.000000 
-0.393551 17.631640 -0.299696 1.108932 -9.890203 5.025655 -23.857800 -4.312726 -2.056733 -0.254547 2.403921 11.468780 -2.082676 15.462227 -15.480078 0.527000 -4.652100 -12.918900 28.727099 10.828783 -6.046058 -1.848729 -5.177028 19.174078 0.790815 -11.209590 -13.553059 -0.424800 4.183200 -11.592800 0.705523 1.746512 0.025617 -0.498767 1.002227 2.285995 2.425767 -3.647403 10.550945 1.026400 -1.877800 4.387900 -78.319781 29.817369 60.610788 61.903790 -55.717658 -34.472372 -1.845598 1.222337 -77.417461 -7.125000 0.000000 0.000000 78.136579 -25.047293 51.051437 -63.885245 56.482453 -31.972865 1.385434 -1.339932 -88.928640 7.125000 0.000000 0.000000 
-0.401598 17.632222 -0.302992 1.138071 -9.969260 5.079434 -23.869532 -4.353677 -2.073898 -0.261346 2.384015 11.407228 -2.125084 15.634108 -15.438621 0.554000 -4.767800 -13.247600 28.724973 10.946018 -6.125339 -1.852309 -5.194249 19.213757 0.748142 -11.042772 -13.779462 -0.320400 3.638600 -10.062100 0.703222 1.751719 -0.000880 -0.502105 1.005866 2.236451 2.480228 -3.544239 10.675267 1.050700 -1.825700 4.430300 -78.380468 29.906838 60.486934 61.940311 -55.726749 -34.500800 -1.838367 1.229660 -77.169474 -7.125000 0.000000 0.000000 78.183389 -25.095301 51.000205 -63.830141 56.469402 -31.924822 1.379191 -1.344344 -88.818833 7.125000 0.000000 0.000000 
-0.409743 17.632513 -0.305901 1.112234 -9.998021 5.108040 -23.815791 -4.444523 -2.049897 -0.266337 2.370177 11.363392 -2.159848 15.785923 -15.438256 0.571300 -4.840700 -13.454600 28.786485 11.023565 -6.149487 -1.852936 -5.201338 19.229957 0.758740 -11.097708 -13.751554 -0.313900 3.601700 -9.958700 0.696064 1.783444 0.002817 -0.558665 1.024518 2.234097 2.545915 -3.507430 10.700598 1.079600 -1.804600 4.429700 -78.312442 29.843662 60.520217 61.875739 -55.709932 -34.442461 -1.833666 1.233994 -76.908415 -7.125000 0.000000 0.000000 78.331309 -25.117675 50.795165 -63.756306 56.457829 -31.861234 1.375068 -1.347019 -88.627306 7.125000 0.000000 0.000000 
-0.416918 17.631543 -0.303477 1.134782 -10.008250 5.066743 -23.819965 -4.485841 -1.990515 -0.262625 2.384123 11.408945 -2.141239 15.739560 -15.529618 0.558700 -4.787600 -13.303700 28.787910 10.961289 -6.088357 -1.849960 -5.188530 19.200526 0.765787 -11.109551 -13.685863 -0.329700 3.690600 -10.207900 0.692644 1.795191 0.031896 -0.581817 1.030158 2.281539 2.568123 -3.469525 10.714375 1.081300 -1.782800 4.416300 -78.320785 29.718121 60.521877 61.578214 -55.637077 -34.189571 -1.833904 1.233275 -76.645699 -7.125000 0.000000 0.000000 78.430604 -25.129070 50.615661 -63.698680 56.449245 -31.816189 1.371917 -1.350319 -88.473425 7.125000 0.000000 0.000000 
-0.425547 17.631931 -0.304544 1.082807 -10.015336 5.029601 -23.719488 -4.457037 -2.025880 -0.251778 2.426781 11.529851 -2.066194 15.506318 -15.777898 0.489600 -4.486300 -12.448900 28.884809 10.926063 -5.973568 -1.837479 -5.153613 19.113353 0.763407 -11.083014 -13.685353 -0.319200 3.631800 -10.042900 0.721491 1.795159 0.044324 -0.558180 1.030572 2.271030 2.550018 -3.396351 10.728529 1.060700 -1.744300 4.386400 -78.418986 29.718303 60.449980 61.356494 -55.584688 -34.001579 -1.826362 1.235629 -76.314272 -7.125000 0.000000 0.000000 78.475580 -25.191944 50.493130 -63.669849 56.441356 -31.792988 1.366981 -1.353548 -88.307577 7.125000 0.000000 0.000000 
